<?xml version="1.0" encoding="UTF-8"?>
<svg id="SVGDoc" width="93" height="44" xmlns="http://www.w3.org/2000/svg" version="1.1" xmlns:xlink="http://www.w3.org/1999/xlink" xmlns:avocode="https://avocode.com/" viewBox="0 0 93 44"><defs></defs><desc>Generated with Avocode.</desc><g><g><title>arrow</title><path d="M92.99983,22.0055c0,0.53593 -0.32809,1.24746 -0.66075,1.59293l-18.74981,19.68193c-0.87538,0.89456 -2.2937,0.99808 -3.31433,0.09094c-0.91237,-0.81162 -0.93502,-2.39368 -0.09122,-3.27451l15.05088,-15.77483v0h-82.89101c-1.29448,0 -2.34378,-1.03697 -2.34378,-2.31589c0,-1.27892 1.0493,-2.31646 2.34378,-2.31646h82.89101v0l-15.05088,-15.77483c-0.84359,-0.88026 -0.78375,-2.42342 0.09142,-3.27393c0.92401,-0.89684 2.45203,-0.81734 3.31412,0.09037l18.74981,19.6825c0.55083,0.53422 0.6514,1.04841 0.66075,1.59178z" fill="#ffffff" fill-opacity="1"></path></g></g></svg>