<?xml version="1.0" encoding="utf-8"?>
<!-- Generator: Adobe Illustrator 16.0.0, SVG Export Plug-In . SVG Version: 6.00 Build 0)  -->
<!DOCTYPE svg PUBLIC "-//W3C//DTD SVG 1.1//EN" "http://www.w3.org/Graphics/SVG/1.1/DTD/svg11.dtd">
<svg version="1.1" id="Слой_1" xmlns="http://www.w3.org/2000/svg" xmlns:xlink="http://www.w3.org/1999/xlink" x="0px" y="0px"
	 width="5000px" height="3000px" viewBox="0 0 5000 3000" enable-background="new 0 0 5000 3000" xml:space="preserve">
<g>
	<defs>
		<rect id="SVGID_1_" width="5000" height="3000"/>
	</defs>
	<clipPath id="SVGID_2_">
		<use xlink:href="#SVGID_1_"  overflow="visible"/>
	</clipPath>
	<path clip-path="url(#SVGID_2_)" fill="#0F0F0F" d="M3537.811,1162.743v250.64c0,0.07,0,0.13-0.012,0.2
		c-0.639,10.19-1.189,20.38-1.969,30.56c-3.26,42.69-6.121,85.42-9.99,128.05c-4.67,51.54-12.07,102.75-21.529,153.62
		c-6.121,32.859-13.03,65.56-19.57,98.34c-0.031,0.16-0.08,0.319-0.131,0.47c-41.859,118.57-118.811,200.48-243.299,232.69
		c-36.932,9.55-74.73,12.43-112.65,14.24c-3.951,0.189-7.9,0.64-11.84,0.979c-0.101,0.01-0.2,0.01-0.301,0.01h-62.489
		c-0.091,0-0.171,0-0.261-0.01c-8.16-0.6-16.33-1.28-24.51-1.78c-87.77-5.29-172.18-25.069-253.24-59.06
		c-63.67-26.69-122.149-61.51-175.629-104c-15.521-12.32-30.61-25.29-45.291-38.889c-18.649-17.302-35.899-35.701-53.869-53.731
		c-0.9-0.91-2.11-1.92-3.121-2.71c-14.139-11.16-27.71-23.67-40.61-37.391c-38.06-40.479-70.409-91.579-95.02-150.239
		c-32.96-78.54-52.06-170.63-52.46-268.89v-5.33c0-1.45,0.011-2.89,0.02-4.34h-0.02v-28.72c0.13-3.07,0.19-6.15,0.19-9.25
		c0-126.94-106.48-229.02-234.989-221.77c-112.261,6.34-202.56,96.64-208.9,208.9c-7.25,128.51,94.829,234.99,221.771,234.99
		c63.189,0,120.21-26.39,160.67-68.75c1.96-2.05,5.409-0.92,5.759,1.89c21.101,168.37,89.75,312.73,185.351,402.78
		c1.325,1.326,1.371,3.529-0.02,4.92c-64.63,59.38-137.3,106.55-218.371,140.53c-81.049,33.99-165.469,53.77-253.239,59.06
		c-8.17,0.5-16.341,1.181-24.5,1.78c-0.091,0.01-0.17,0.01-0.261,0.01h-62.489c-0.1,0-0.201,0-0.301-0.01
		c-3.949-0.34-7.889-0.79-11.849-0.979c-37.921-1.811-75.711-4.69-112.64-14.24c-124.491-32.21-201.451-114.12-243.301-232.69
		c-0.049-0.15-0.099-0.31-0.13-0.47c-6.549-32.78-13.449-65.48-19.569-98.34c-9.471-50.87-16.86-102.08-21.54-153.62
		c-3.86-42.63-6.73-85.36-9.98-128.05c-0.781-10.18-1.33-20.37-1.98-30.56c-0.011-0.06-0.011-0.14-0.011-0.21v-250.62
		c0-0.22,0.02-0.439,0.06-0.649c0.27-1.351,0.621-2.7,0.71-4.061c1.79-26.76,2.971-53.57,5.451-80.26
		c2.87-31.05,5.94-62.13,10.609-92.94c6.75-44.47,14.931-88.73,22.681-133.04c5.23-29.89,11.02-59.66,22.19-88.05
		c26.39-67.05,67.21-122.83,128.18-162.47c51.4-33.41,109.059-47.96,169.23-54.36c11.5-1.23,23.05-2.05,34.57-3.06
		c0.089-0.01,0.19-0.01,0.279-0.01h61.411c0.129,0,0.27,0.01,0.399,0.02c2.42,0.28,4.851,0.65,7.281,0.79
		c25.42,1.4,50.889,2.09,76.25,4.24c61.4,5.21,121.199,18.32,179.219,39.09c87.06,31.16,165.221,75.68,234.5,133.45
		c28.261,23.55,55.031,49.3,80.341,77.25c1.949,2.16,4.109,4.13,6.17,6.19c12.02,11.03,23.789,23.03,35.219,35.94
		c0.011,0.01,0.02,0.02,0.03,0.03c86.061,97.26,152.3,246.14,153.011,419.71v0.95c0.01,1.45,0.01,2.91,0,4.37
		c0,1.45-0.011,2.9-0.021,4.35h0.021v28.72c-0.131,3.07-0.191,6.15-0.191,9.25c0,122.67,99.451,222.12,222.131,222.12
		c120.189,0,218.08-95.45,222.01-214.67c4.199-127.41-100.539-232.86-227.971-229.5c-60.809,1.6-115.539,27.64-154.709,68.67
		c-1.961,2.05-5.41,0.92-5.76-1.9c-21.111-168.39-89.781-312.76-185.4-402.81c-1.42-1.34-1.42-3.6,0.02-4.92
		c75.83-69.44,163.051-121.89,261.68-157.2c58.021-20.77,117.82-33.88,179.23-39.09l83.52-5.03c0.131-0.01,0.271-0.02,0.4-0.02
		h61.42c0.091,0,0.19,0,0.281,0.01c11.52,1.01,23.068,1.83,34.56,3.06c60.17,6.4,117.839,20.95,169.239,54.36
		c60.971,39.64,101.791,95.42,128.17,162.47c11.18,28.391,16.961,58.16,22.189,88.05c7.762,44.31,15.932,88.57,22.682,133.04
		c4.68,30.81,7.739,61.89,10.619,92.94c2.471,26.69,3.66,53.5,5.439,80.26c0.09,1.36,0.451,2.71,0.711,4.061
		C3537.789,1162.313,3537.811,1162.533,3537.811,1162.743"/>
	<path clip-path="url(#SVGID_2_)" d="M2310.04,1346.173c-0.01,1.45-0.02,2.89-0.02,4.34v-4.34H2310.04z"/>
	<path clip-path="url(#SVGID_2_)" fill="#FFFFFF" d="M2310.02,1346.173v4.34c0-1.45,0.01-2.89,0.02-4.34H2310.02z"/>
</g>
</svg>
